<svg width="940" height="50" viewBox="0 0 940 50" fill="none" xmlns="http://www.w3.org/2000/svg">
<path d="M27.3438 33.5938H38.2812C38.1354 36.7604 37.2812 39.5521 35.7188 41.9688C34.1562 44.3854 31.9896 46.2708 29.2188 47.625C26.4688 48.9583 23.2188 49.625 19.4688 49.625C16.4271 49.625 13.7083 49.1146 11.3125 48.0938C8.9375 47.0729 6.91667 45.6042 5.25 43.6875C3.60417 41.7708 2.34375 39.4479 1.46875 36.7188C0.614583 33.9896 0.1875 30.9167 0.1875 27.5V25.0312C0.1875 21.6146 0.635417 18.5417 1.53125 15.8125C2.44792 13.0625 3.73958 10.7292 5.40625 8.8125C7.09375 6.875 9.11458 5.39583 11.4688 4.375C13.8229 3.35417 16.4375 2.84375 19.3125 2.84375C23.2708 2.84375 26.6146 3.55208 29.3438 4.96875C32.0729 6.38542 34.1875 8.33333 35.6875 10.8125C37.1875 13.2708 38.0729 16.0729 38.3438 19.2188H27.4062C27.3646 17.5104 27.0729 16.0833 26.5312 14.9375C25.9896 13.7708 25.1354 12.8958 23.9688 12.3125C22.8021 11.7292 21.25 11.4375 19.3125 11.4375C17.9583 11.4375 16.7812 11.6875 15.7812 12.1875C14.7812 12.6875 13.9479 13.4792 13.2812 14.5625C12.6146 15.6458 12.1146 17.0521 11.7812 18.7812C11.4688 20.4896 11.3125 22.5521 11.3125 24.9688V27.5C11.3125 29.9167 11.4583 31.9792 11.75 33.6875C12.0417 35.3958 12.5104 36.7917 13.1562 37.875C13.8021 38.9583 14.6354 39.7604 15.6562 40.2812C16.6979 40.7812 17.9688 41.0312 19.4688 41.0312C21.1354 41.0312 22.5417 40.7708 23.6875 40.25C24.8333 39.7083 25.7188 38.8958 26.3438 37.8125C26.9688 36.7083 27.3021 35.3021 27.3438 33.5938ZM54.0938 1V49H43.5312V1H54.0938ZM71.7188 15.1875V49H61.1562V15.1875H71.7188ZM60.5312 6.46875C60.5312 4.96875 61.0729 3.73958 62.1562 2.78125C63.2396 1.82292 64.6458 1.34375 66.375 1.34375C68.1042 1.34375 69.5104 1.82292 70.5938 2.78125C71.6771 3.73958 72.2188 4.96875 72.2188 6.46875C72.2188 7.96875 71.6771 9.19792 70.5938 10.1562C69.5104 11.1146 68.1042 11.5938 66.375 11.5938C64.6458 11.5938 63.2396 11.1146 62.1562 10.1562C61.0729 9.19792 60.5312 7.96875 60.5312 6.46875ZM92.5 41.5C93.4792 41.5 94.3125 41.3229 95 40.9688C95.7083 40.5938 96.2396 40.0729 96.5938 39.4062C96.9688 38.7188 97.1458 37.8958 97.125 36.9375H107.031C107.052 39.4792 106.427 41.7083 105.156 43.625C103.906 45.5208 102.198 47 100.031 48.0625C97.8854 49.1042 95.4583 49.625 92.75 49.625C90.1042 49.625 87.7917 49.1979 85.8125 48.3438C83.8333 47.4688 82.1771 46.2604 80.8438 44.7188C79.5312 43.1562 78.5417 41.3333 77.875 39.25C77.2292 37.1667 76.9062 34.9062 76.9062 32.4688V31.75C76.9062 29.3125 77.2292 27.0521 77.875 24.9688C78.5417 22.8646 79.5312 21.0417 80.8438 19.5C82.1771 17.9375 83.8229 16.7292 85.7812 15.875C87.7604 15 90.0625 14.5625 92.6875 14.5625C95.5 14.5625 97.9792 15.0938 100.125 16.1562C102.292 17.2188 103.99 18.7604 105.219 20.7812C106.448 22.8021 107.052 25.25 107.031 28.125H97.125C97.1458 27.1042 96.9896 26.1875 96.6562 25.375C96.3229 24.5625 95.8021 23.9167 95.0938 23.4375C94.4062 22.9375 93.5208 22.6875 92.4375 22.6875C91.3542 22.6875 90.4792 22.9271 89.8125 23.4062C89.1458 23.8854 88.6354 24.5521 88.2812 25.4062C87.9479 26.2396 87.7188 27.1979 87.5938 28.2812C87.4896 29.3646 87.4375 30.5208 87.4375 31.75V32.4688C87.4375 33.7188 87.4896 34.8958 87.5938 36C87.7188 37.0833 87.9583 38.0417 88.3125 38.875C88.6667 39.6875 89.1771 40.3333 89.8438 40.8125C90.5104 41.2708 91.3958 41.5 92.5 41.5ZM122.156 0.96875V49H111.625V0.96875H122.156ZM143.781 15.1875L129.094 32.4062L121.406 40.0938L116.812 33.4062L123.219 25.0625L131.156 15.1875H143.781ZM132.5 49L123.469 33.5938L131.25 28.0625L144.562 49H132.5ZM161.156 32.4375V31.7812C161.156 29.3021 161.51 27.0208 162.219 24.9375C162.927 22.8333 163.969 21.0104 165.344 19.4688C166.719 17.9271 168.417 16.7292 170.438 15.875C172.458 15 174.792 14.5625 177.438 14.5625C180.104 14.5625 182.448 15 184.469 15.875C186.51 16.7292 188.219 17.9271 189.594 19.4688C190.969 21.0104 192.01 22.8333 192.719 24.9375C193.427 27.0208 193.781 29.3021 193.781 31.7812V32.4375C193.781 34.8958 193.427 37.1771 192.719 39.2812C192.01 41.3646 190.969 43.1875 189.594 44.75C188.219 46.2917 186.521 47.4896 184.5 48.3438C182.479 49.1979 180.146 49.625 177.5 49.625C174.854 49.625 172.51 49.1979 170.469 48.3438C168.427 47.4896 166.719 46.2917 165.344 44.75C163.969 43.1875 162.927 41.3646 162.219 39.2812C161.51 37.1771 161.156 34.8958 161.156 32.4375ZM171.688 31.7812V32.4375C171.688 33.7083 171.781 34.8958 171.969 36C172.156 37.1042 172.469 38.0729 172.906 38.9062C173.344 39.7188 173.938 40.3542 174.688 40.8125C175.438 41.2708 176.375 41.5 177.5 41.5C178.604 41.5 179.521 41.2708 180.25 40.8125C181 40.3542 181.594 39.7188 182.031 38.9062C182.469 38.0729 182.781 37.1042 182.969 36C183.156 34.8958 183.25 33.7083 183.25 32.4375V31.7812C183.25 30.5521 183.156 29.3958 182.969 28.3125C182.781 27.2083 182.469 26.2396 182.031 25.4062C181.594 24.5521 181 23.8854 180.25 23.4062C179.5 22.9271 178.562 22.6875 177.438 22.6875C176.333 22.6875 175.406 22.9271 174.656 23.4062C173.927 23.8854 173.344 24.5521 172.906 25.4062C172.469 26.2396 172.156 27.2083 171.969 28.3125C171.781 29.3958 171.688 30.5521 171.688 31.7812ZM208.812 22.4062V49H198.281V15.1875H208.156L208.812 22.4062ZM207.562 30.9375L205.094 31C205.094 28.4167 205.406 26.1146 206.031 24.0938C206.656 22.0521 207.542 20.3229 208.688 18.9062C209.833 17.4896 211.198 16.4167 212.781 15.6875C214.385 14.9375 216.167 14.5625 218.125 14.5625C219.688 14.5625 221.115 14.7917 222.406 15.25C223.719 15.7083 224.844 16.4479 225.781 17.4688C226.74 18.4896 227.469 19.8438 227.969 21.5312C228.49 23.1979 228.75 25.2604 228.75 27.7188V49H218.156V27.6875C218.156 26.3333 217.969 25.3021 217.594 24.5938C217.219 23.8646 216.677 23.3646 215.969 23.0938C215.26 22.8229 214.396 22.6875 213.375 22.6875C212.292 22.6875 211.375 22.8958 210.625 23.3125C209.875 23.7292 209.271 24.3125 208.812 25.0625C208.375 25.7917 208.052 26.6562 207.844 27.6562C207.656 28.6562 207.562 29.75 207.562 30.9375ZM259.281 3.5L267.656 23.25L276.062 3.5H287.875L273.25 32.6562V49H262.094V32.6562L247.438 3.5H259.281ZM287.344 32.4375V31.7812C287.344 29.3021 287.698 27.0208 288.406 24.9375C289.115 22.8333 290.156 21.0104 291.531 19.4688C292.906 17.9271 294.604 16.7292 296.625 15.875C298.646 15 300.979 14.5625 303.625 14.5625C306.292 14.5625 308.635 15 310.656 15.875C312.698 16.7292 314.406 17.9271 315.781 19.4688C317.156 21.0104 318.198 22.8333 318.906 24.9375C319.615 27.0208 319.969 29.3021 319.969 31.7812V32.4375C319.969 34.8958 319.615 37.1771 318.906 39.2812C318.198 41.3646 317.156 43.1875 315.781 44.75C314.406 46.2917 312.708 47.4896 310.688 48.3438C308.667 49.1979 306.333 49.625 303.688 49.625C301.042 49.625 298.698 49.1979 296.656 48.3438C294.615 47.4896 292.906 46.2917 291.531 44.75C290.156 43.1875 289.115 41.3646 288.406 39.2812C287.698 37.1771 287.344 34.8958 287.344 32.4375ZM297.875 31.7812V32.4375C297.875 33.7083 297.969 34.8958 298.156 36C298.344 37.1042 298.656 38.0729 299.094 38.9062C299.531 39.7188 300.125 40.3542 300.875 40.8125C301.625 41.2708 302.562 41.5 303.688 41.5C304.792 41.5 305.708 41.2708 306.438 40.8125C307.188 40.3542 307.781 39.7188 308.219 38.9062C308.656 38.0729 308.969 37.1042 309.156 36C309.344 34.8958 309.438 33.7083 309.438 32.4375V31.7812C309.438 30.5521 309.344 29.3958 309.156 28.3125C308.969 27.2083 308.656 26.2396 308.219 25.4062C307.781 24.5521 307.188 23.8854 306.438 23.4062C305.688 22.9271 304.75 22.6875 303.625 22.6875C302.521 22.6875 301.594 22.9271 300.844 23.4062C300.115 23.8854 299.531 24.5521 299.094 25.4062C298.656 26.2396 298.344 27.2083 298.156 28.3125C297.969 29.3958 297.875 30.5521 297.875 31.7812ZM344.406 40.7812V15.1875H354.969V49H345.094L344.406 40.7812ZM345.406 33.9062L348.156 33.8438C348.156 36.1146 347.885 38.2188 347.344 40.1562C346.802 42.0729 346 43.7396 344.938 45.1562C343.896 46.5729 342.604 47.6771 341.062 48.4688C339.542 49.2396 337.781 49.625 335.781 49.625C334.115 49.625 332.583 49.3958 331.188 48.9375C329.812 48.4583 328.625 47.7188 327.625 46.7188C326.625 45.6979 325.844 44.3958 325.281 42.8125C324.74 41.2083 324.469 39.2917 324.469 37.0625V15.1875H335V37.125C335 37.875 335.094 38.5208 335.281 39.0625C335.469 39.6042 335.74 40.0625 336.094 40.4375C336.448 40.7917 336.885 41.0625 337.406 41.25C337.948 41.4167 338.562 41.5 339.25 41.5C340.833 41.5 342.073 41.1667 342.969 40.5C343.865 39.8333 344.49 38.9271 344.844 37.7812C345.219 36.6354 345.406 35.3438 345.406 33.9062ZM371.406 23.5625V49H360.875V15.1875H370.719L371.406 23.5625ZM381.406 14.9375L381.219 24.7188C380.802 24.6771 380.24 24.625 379.531 24.5625C378.823 24.5 378.229 24.4688 377.75 24.4688C376.521 24.4688 375.458 24.6146 374.562 24.9062C373.688 25.1771 372.958 25.5938 372.375 26.1562C371.812 26.6979 371.396 27.3854 371.125 28.2188C370.875 29.0521 370.76 30.0208 370.781 31.125L368.875 29.875C368.875 27.6042 369.094 25.5417 369.531 23.6875C369.99 21.8125 370.635 20.1979 371.469 18.8438C372.302 17.4688 373.312 16.4167 374.5 15.6875C375.688 14.9375 377.021 14.5625 378.5 14.5625C379.021 14.5625 379.531 14.5938 380.031 14.6562C380.552 14.7188 381.01 14.8125 381.406 14.9375ZM419.625 33.5625H408.312V25.0938H419.625C421.167 25.0938 422.417 24.8333 423.375 24.3125C424.333 23.7917 425.031 23.0729 425.469 22.1562C425.927 21.2188 426.156 20.1667 426.156 19C426.156 17.75 425.927 16.5938 425.469 15.5312C425.031 14.4688 424.333 13.6146 423.375 12.9688C422.417 12.3021 421.167 11.9688 419.625 11.9688H412.438V49H401.469V3.5H419.625C423.271 3.5 426.406 4.16667 429.031 5.5C431.677 6.83333 433.708 8.66667 435.125 11C436.542 13.3125 437.25 15.9583 437.25 18.9375C437.25 21.875 436.542 24.4375 435.125 26.625C433.708 28.8125 431.677 30.5208 429.031 31.75C426.406 32.9583 423.271 33.5625 419.625 33.5625ZM453.281 23.5625V49H442.75V15.1875H452.594L453.281 23.5625ZM463.281 14.9375L463.094 24.7188C462.677 24.6771 462.115 24.625 461.406 24.5625C460.698 24.5 460.104 24.4688 459.625 24.4688C458.396 24.4688 457.333 24.6146 456.438 24.9062C455.562 25.1771 454.833 25.5938 454.25 26.1562C453.688 26.6979 453.271 27.3854 453 28.2188C452.75 29.0521 452.635 30.0208 452.656 31.125L450.75 29.875C450.75 27.6042 450.969 25.5417 451.406 23.6875C451.865 21.8125 452.51 20.1979 453.344 18.8438C454.177 17.4688 455.188 16.4167 456.375 15.6875C457.562 14.9375 458.896 14.5625 460.375 14.5625C460.896 14.5625 461.406 14.5938 461.906 14.6562C462.427 14.7188 462.885 14.8125 463.281 14.9375ZM482.656 49.625C479.906 49.625 477.448 49.1979 475.281 48.3438C473.115 47.4688 471.281 46.2708 469.781 44.75C468.302 43.2292 467.167 41.4792 466.375 39.5C465.604 37.5208 465.219 35.4271 465.219 33.2188V32.0312C465.219 29.5521 465.562 27.2604 466.25 25.1562C466.938 23.0312 467.958 21.1771 469.312 19.5938C470.667 18.0104 472.365 16.7812 474.406 15.9062C476.448 15.0104 478.823 14.5625 481.531 14.5625C483.927 14.5625 486.073 14.9479 487.969 15.7188C489.865 16.4896 491.469 17.5938 492.781 19.0312C494.115 20.4688 495.125 22.2083 495.812 24.25C496.521 26.2917 496.875 28.5833 496.875 31.125V35.4062H469.25V28.8125H486.594V28C486.615 26.875 486.417 25.9167 486 25.125C485.604 24.3333 485.021 23.7292 484.25 23.3125C483.479 22.8958 482.542 22.6875 481.438 22.6875C480.292 22.6875 479.344 22.9375 478.594 23.4375C477.865 23.9375 477.292 24.625 476.875 25.5C476.479 26.3542 476.198 27.3438 476.031 28.4688C475.865 29.5938 475.781 30.7812 475.781 32.0312V33.2188C475.781 34.4688 475.948 35.6042 476.281 36.625C476.635 37.6458 477.135 38.5208 477.781 39.25C478.448 39.9583 479.24 40.5104 480.156 40.9062C481.094 41.3021 482.156 41.5 483.344 41.5C484.781 41.5 486.198 41.2292 487.594 40.6875C488.99 40.1458 490.188 39.25 491.188 38L495.969 43.6875C495.281 44.6667 494.302 45.6146 493.031 46.5312C491.781 47.4479 490.281 48.1979 488.531 48.7812C486.781 49.3438 484.823 49.625 482.656 49.625ZM520.594 41.25V1H531.188V49H521.688L520.594 41.25ZM499.844 32.5V31.8438C499.844 29.2812 500.125 26.9479 500.688 24.8438C501.25 22.7188 502.083 20.8958 503.188 19.375C504.292 17.8333 505.667 16.6458 507.312 15.8125C508.958 14.9792 510.854 14.5625 513 14.5625C514.917 14.5625 516.594 15.0104 518.031 15.9062C519.469 16.7812 520.698 18.0104 521.719 19.5938C522.74 21.1771 523.573 23.0312 524.219 25.1562C524.865 27.2604 525.354 29.5312 525.688 31.9688V32.75C525.354 35.0417 524.865 37.2083 524.219 39.25C523.573 41.2708 522.74 43.0625 521.719 44.625C520.698 46.1875 519.458 47.4167 518 48.3125C516.562 49.1875 514.875 49.625 512.938 49.625C510.792 49.625 508.896 49.1979 507.25 48.3438C505.625 47.4896 504.26 46.2917 503.156 44.75C502.073 43.2083 501.25 41.3958 500.688 39.3125C500.125 37.2292 499.844 34.9583 499.844 32.5ZM510.375 31.8438V32.5C510.375 33.7708 510.458 34.9479 510.625 36.0312C510.792 37.1146 511.073 38.0729 511.469 38.9062C511.885 39.7188 512.427 40.3542 513.094 40.8125C513.781 41.2708 514.625 41.5 515.625 41.5C516.979 41.5 518.094 41.1771 518.969 40.5312C519.865 39.8854 520.521 38.9688 520.938 37.7812C521.375 36.5938 521.562 35.1979 521.5 33.5938V31.125C521.542 29.75 521.448 28.5417 521.219 27.5C520.99 26.4375 520.625 25.5521 520.125 24.8438C519.646 24.1354 519.031 23.6042 518.281 23.25C517.552 22.875 516.688 22.6875 515.688 22.6875C514.708 22.6875 513.875 22.9167 513.188 23.375C512.521 23.8333 511.979 24.4792 511.562 25.3125C511.146 26.125 510.844 27.0938 510.656 28.2188C510.469 29.3229 510.375 30.5312 510.375 31.8438ZM548.281 15.1875V49H537.719V15.1875H548.281ZM537.094 6.46875C537.094 4.96875 537.635 3.73958 538.719 2.78125C539.802 1.82292 541.208 1.34375 542.938 1.34375C544.667 1.34375 546.073 1.82292 547.156 2.78125C548.24 3.73958 548.781 4.96875 548.781 6.46875C548.781 7.96875 548.24 9.19792 547.156 10.1562C546.073 11.1146 544.667 11.5938 542.938 11.5938C541.208 11.5938 539.802 11.1146 538.719 10.1562C537.635 9.19792 537.094 7.96875 537.094 6.46875ZM569.062 41.5C570.042 41.5 570.875 41.3229 571.562 40.9688C572.271 40.5938 572.802 40.0729 573.156 39.4062C573.531 38.7188 573.708 37.8958 573.688 36.9375H583.594C583.615 39.4792 582.99 41.7083 581.719 43.625C580.469 45.5208 578.76 47 576.594 48.0625C574.448 49.1042 572.021 49.625 569.312 49.625C566.667 49.625 564.354 49.1979 562.375 48.3438C560.396 47.4688 558.74 46.2604 557.406 44.7188C556.094 43.1562 555.104 41.3333 554.438 39.25C553.792 37.1667 553.469 34.9062 553.469 32.4688V31.75C553.469 29.3125 553.792 27.0521 554.438 24.9688C555.104 22.8646 556.094 21.0417 557.406 19.5C558.74 17.9375 560.385 16.7292 562.344 15.875C564.323 15 566.625 14.5625 569.25 14.5625C572.062 14.5625 574.542 15.0938 576.688 16.1562C578.854 17.2188 580.552 18.7604 581.781 20.7812C583.01 22.8021 583.615 25.25 583.594 28.125H573.688C573.708 27.1042 573.552 26.1875 573.219 25.375C572.885 24.5625 572.365 23.9167 571.656 23.4375C570.969 22.9375 570.083 22.6875 569 22.6875C567.917 22.6875 567.042 22.9271 566.375 23.4062C565.708 23.8854 565.198 24.5521 564.844 25.4062C564.51 26.2396 564.281 27.1979 564.156 28.2812C564.052 29.3646 564 30.5208 564 31.75V32.4688C564 33.7188 564.052 34.8958 564.156 36C564.281 37.0833 564.521 38.0417 564.875 38.875C565.229 39.6875 565.74 40.3333 566.406 40.8125C567.073 41.2708 567.958 41.5 569.062 41.5ZM605.906 15.1875V22.5H585.531V15.1875H605.906ZM589.812 6.78125H600.344V37.9688C600.344 38.8646 600.448 39.5625 600.656 40.0625C600.865 40.5417 601.219 40.8854 601.719 41.0938C602.24 41.2812 602.927 41.375 603.781 41.375C604.385 41.375 604.885 41.3646 605.281 41.3438C605.677 41.3021 606.052 41.25 606.406 41.1875V48.7188C605.51 49.0104 604.573 49.2292 603.594 49.375C602.615 49.5417 601.573 49.625 600.469 49.625C598.219 49.625 596.292 49.2708 594.688 48.5625C593.104 47.8542 591.896 46.7396 591.062 45.2188C590.229 43.6979 589.812 41.7188 589.812 39.2812V6.78125ZM621.219 15.1875V49H610.656V15.1875H621.219ZM610.031 6.46875C610.031 4.96875 610.573 3.73958 611.656 2.78125C612.74 1.82292 614.146 1.34375 615.875 1.34375C617.604 1.34375 619.01 1.82292 620.094 2.78125C621.177 3.73958 621.719 4.96875 621.719 6.46875C621.719 7.96875 621.177 9.19792 620.094 10.1562C619.01 11.1146 617.604 11.5938 615.875 11.5938C614.146 11.5938 612.74 11.1146 611.656 10.1562C610.573 9.19792 610.031 7.96875 610.031 6.46875ZM626.406 32.4375V31.7812C626.406 29.3021 626.76 27.0208 627.469 24.9375C628.177 22.8333 629.219 21.0104 630.594 19.4688C631.969 17.9271 633.667 16.7292 635.688 15.875C637.708 15 640.042 14.5625 642.688 14.5625C645.354 14.5625 647.698 15 649.719 15.875C651.76 16.7292 653.469 17.9271 654.844 19.4688C656.219 21.0104 657.26 22.8333 657.969 24.9375C658.677 27.0208 659.031 29.3021 659.031 31.7812V32.4375C659.031 34.8958 658.677 37.1771 657.969 39.2812C657.26 41.3646 656.219 43.1875 654.844 44.75C653.469 46.2917 651.771 47.4896 649.75 48.3438C647.729 49.1979 645.396 49.625 642.75 49.625C640.104 49.625 637.76 49.1979 635.719 48.3438C633.677 47.4896 631.969 46.2917 630.594 44.75C629.219 43.1875 628.177 41.3646 627.469 39.2812C626.76 37.1771 626.406 34.8958 626.406 32.4375ZM636.938 31.7812V32.4375C636.938 33.7083 637.031 34.8958 637.219 36C637.406 37.1042 637.719 38.0729 638.156 38.9062C638.594 39.7188 639.188 40.3542 639.938 40.8125C640.688 41.2708 641.625 41.5 642.75 41.5C643.854 41.5 644.771 41.2708 645.5 40.8125C646.25 40.3542 646.844 39.7188 647.281 38.9062C647.719 38.0729 648.031 37.1042 648.219 36C648.406 34.8958 648.5 33.7083 648.5 32.4375V31.7812C648.5 30.5521 648.406 29.3958 648.219 28.3125C648.031 27.2083 647.719 26.2396 647.281 25.4062C646.844 24.5521 646.25 23.8854 645.5 23.4062C644.75 22.9271 643.812 22.6875 642.688 22.6875C641.583 22.6875 640.656 22.9271 639.906 23.4062C639.177 23.8854 638.594 24.5521 638.156 25.4062C637.719 26.2396 637.406 27.2083 637.219 28.3125C637.031 29.3958 636.938 30.5521 636.938 31.7812ZM674.062 22.4062V49H663.531V15.1875H673.406L674.062 22.4062ZM672.812 30.9375L670.344 31C670.344 28.4167 670.656 26.1146 671.281 24.0938C671.906 22.0521 672.792 20.3229 673.938 18.9062C675.083 17.4896 676.448 16.4167 678.031 15.6875C679.635 14.9375 681.417 14.5625 683.375 14.5625C684.938 14.5625 686.365 14.7917 687.656 15.25C688.969 15.7083 690.094 16.4479 691.031 17.4688C691.99 18.4896 692.719 19.8438 693.219 21.5312C693.74 23.1979 694 25.2604 694 27.7188V49H683.406V27.6875C683.406 26.3333 683.219 25.3021 682.844 24.5938C682.469 23.8646 681.927 23.3646 681.219 23.0938C680.51 22.8229 679.646 22.6875 678.625 22.6875C677.542 22.6875 676.625 22.8958 675.875 23.3125C675.125 23.7292 674.521 24.3125 674.062 25.0625C673.625 25.7917 673.302 26.6562 673.094 27.6562C672.906 28.6562 672.812 29.75 672.812 30.9375ZM733.5 39.5C733.5 38.9167 733.302 38.4167 732.906 38C732.531 37.5625 731.865 37.1667 730.906 36.8125C729.948 36.4375 728.604 36.0625 726.875 35.6875C725.229 35.3333 723.677 34.8646 722.219 34.2812C720.781 33.6979 719.521 32.9896 718.438 32.1562C717.354 31.3229 716.5 30.3333 715.875 29.1875C715.271 28.0417 714.969 26.7292 714.969 25.25C714.969 23.8125 715.271 22.4583 715.875 21.1875C716.5 19.8958 717.406 18.7604 718.594 17.7812C719.802 16.7812 721.271 16 723 15.4375C724.729 14.8542 726.698 14.5625 728.906 14.5625C731.948 14.5625 734.573 15.0312 736.781 15.9688C738.99 16.8854 740.688 18.1771 741.875 19.8438C743.083 21.4896 743.688 23.3958 743.688 25.5625H733.156C733.156 24.7083 733.01 23.9792 732.719 23.375C732.448 22.7708 732 22.3125 731.375 22C730.75 21.6667 729.917 21.5 728.875 21.5C728.146 21.5 727.479 21.6354 726.875 21.9062C726.292 22.1771 725.823 22.5521 725.469 23.0312C725.115 23.5104 724.938 24.0729 724.938 24.7188C724.938 25.1771 725.042 25.5938 725.25 25.9688C725.479 26.3229 725.823 26.6562 726.281 26.9688C726.74 27.2604 727.323 27.5312 728.031 27.7812C728.74 28.0104 729.594 28.2188 730.594 28.4062C732.865 28.8229 734.99 29.4167 736.969 30.1875C738.948 30.9583 740.552 32.0521 741.781 33.4688C743.031 34.8854 743.656 36.7917 743.656 39.1875C743.656 40.6875 743.312 42.0729 742.625 43.3438C741.938 44.5938 740.948 45.6979 739.656 46.6562C738.365 47.5938 736.812 48.3229 735 48.8438C733.188 49.3646 731.146 49.625 728.875 49.625C725.646 49.625 722.917 49.0521 720.688 47.9062C718.458 46.7396 716.771 45.2812 715.625 43.5312C714.5 41.7604 713.938 39.9688 713.938 38.1562H723.75C723.792 39.1979 724.042 40.0521 724.5 40.7188C724.979 41.3854 725.615 41.875 726.406 42.1875C727.198 42.5 728.115 42.6562 729.156 42.6562C730.115 42.6562 730.906 42.5208 731.531 42.25C732.177 41.9792 732.667 41.6146 733 41.1562C733.333 40.6771 733.5 40.125 733.5 39.5ZM764.969 49.625C762.219 49.625 759.76 49.1979 757.594 48.3438C755.427 47.4688 753.594 46.2708 752.094 44.75C750.615 43.2292 749.479 41.4792 748.688 39.5C747.917 37.5208 747.531 35.4271 747.531 33.2188V32.0312C747.531 29.5521 747.875 27.2604 748.562 25.1562C749.25 23.0312 750.271 21.1771 751.625 19.5938C752.979 18.0104 754.677 16.7812 756.719 15.9062C758.76 15.0104 761.135 14.5625 763.844 14.5625C766.24 14.5625 768.385 14.9479 770.281 15.7188C772.177 16.4896 773.781 17.5938 775.094 19.0312C776.427 20.4688 777.438 22.2083 778.125 24.25C778.833 26.2917 779.188 28.5833 779.188 31.125V35.4062H751.562V28.8125H768.906V28C768.927 26.875 768.729 25.9167 768.312 25.125C767.917 24.3333 767.333 23.7292 766.562 23.3125C765.792 22.8958 764.854 22.6875 763.75 22.6875C762.604 22.6875 761.656 22.9375 760.906 23.4375C760.177 23.9375 759.604 24.625 759.188 25.5C758.792 26.3542 758.51 27.3438 758.344 28.4688C758.177 29.5938 758.094 30.7812 758.094 32.0312V33.2188C758.094 34.4688 758.26 35.6042 758.594 36.625C758.948 37.6458 759.448 38.5208 760.094 39.25C760.76 39.9583 761.552 40.5104 762.469 40.9062C763.406 41.3021 764.469 41.5 765.656 41.5C767.094 41.5 768.51 41.2292 769.906 40.6875C771.302 40.1458 772.5 39.25 773.5 38L778.281 43.6875C777.594 44.6667 776.615 45.6146 775.344 46.5312C774.094 47.4479 772.594 48.1979 770.844 48.7812C769.094 49.3438 767.135 49.625 764.969 49.625ZM794.094 23.5625V49H783.562V15.1875H793.406L794.094 23.5625ZM804.094 14.9375L803.906 24.7188C803.49 24.6771 802.927 24.625 802.219 24.5625C801.51 24.5 800.917 24.4688 800.438 24.4688C799.208 24.4688 798.146 24.6146 797.25 24.9062C796.375 25.1771 795.646 25.5938 795.062 26.1562C794.5 26.6979 794.083 27.3854 793.812 28.2188C793.562 29.0521 793.448 30.0208 793.469 31.125L791.562 29.875C791.562 27.6042 791.781 25.5417 792.219 23.6875C792.677 21.8125 793.323 20.1979 794.156 18.8438C794.99 17.4688 796 16.4167 797.188 15.6875C798.375 14.9375 799.708 14.5625 801.188 14.5625C801.708 14.5625 802.219 14.5938 802.719 14.6562C803.24 14.7188 803.698 14.8125 804.094 14.9375ZM820.469 41.7812L827.125 15.1875H838.219L827.156 49H820.594L820.469 41.7812ZM816.531 15.1875L823.094 41.7812L823.031 49H816.438L805.406 15.1875H816.531ZM852.469 15.1875V49H841.906V15.1875H852.469ZM841.281 6.46875C841.281 4.96875 841.823 3.73958 842.906 2.78125C843.99 1.82292 845.396 1.34375 847.125 1.34375C848.854 1.34375 850.26 1.82292 851.344 2.78125C852.427 3.73958 852.969 4.96875 852.969 6.46875C852.969 7.96875 852.427 9.19792 851.344 10.1562C850.26 11.1146 848.854 11.5938 847.125 11.5938C845.396 11.5938 843.99 11.1146 842.906 10.1562C841.823 9.19792 841.281 7.96875 841.281 6.46875ZM873.25 41.5C874.229 41.5 875.062 41.3229 875.75 40.9688C876.458 40.5938 876.99 40.0729 877.344 39.4062C877.719 38.7188 877.896 37.8958 877.875 36.9375H887.781C887.802 39.4792 887.177 41.7083 885.906 43.625C884.656 45.5208 882.948 47 880.781 48.0625C878.635 49.1042 876.208 49.625 873.5 49.625C870.854 49.625 868.542 49.1979 866.562 48.3438C864.583 47.4688 862.927 46.2604 861.594 44.7188C860.281 43.1562 859.292 41.3333 858.625 39.25C857.979 37.1667 857.656 34.9062 857.656 32.4688V31.75C857.656 29.3125 857.979 27.0521 858.625 24.9688C859.292 22.8646 860.281 21.0417 861.594 19.5C862.927 17.9375 864.573 16.7292 866.531 15.875C868.51 15 870.812 14.5625 873.438 14.5625C876.25 14.5625 878.729 15.0938 880.875 16.1562C883.042 17.2188 884.74 18.7604 885.969 20.7812C887.198 22.8021 887.802 25.25 887.781 28.125H877.875C877.896 27.1042 877.74 26.1875 877.406 25.375C877.073 24.5625 876.552 23.9167 875.844 23.4375C875.156 22.9375 874.271 22.6875 873.188 22.6875C872.104 22.6875 871.229 22.9271 870.562 23.4062C869.896 23.8854 869.385 24.5521 869.031 25.4062C868.698 26.2396 868.469 27.1979 868.344 28.2812C868.24 29.3646 868.188 30.5208 868.188 31.75V32.4688C868.188 33.7188 868.24 34.8958 868.344 36C868.469 37.0833 868.708 38.0417 869.062 38.875C869.417 39.6875 869.927 40.3333 870.594 40.8125C871.26 41.2708 872.146 41.5 873.25 41.5ZM908.656 49.625C905.906 49.625 903.448 49.1979 901.281 48.3438C899.115 47.4688 897.281 46.2708 895.781 44.75C894.302 43.2292 893.167 41.4792 892.375 39.5C891.604 37.5208 891.219 35.4271 891.219 33.2188V32.0312C891.219 29.5521 891.562 27.2604 892.25 25.1562C892.938 23.0312 893.958 21.1771 895.312 19.5938C896.667 18.0104 898.365 16.7812 900.406 15.9062C902.448 15.0104 904.823 14.5625 907.531 14.5625C909.927 14.5625 912.073 14.9479 913.969 15.7188C915.865 16.4896 917.469 17.5938 918.781 19.0312C920.115 20.4688 921.125 22.2083 921.812 24.25C922.521 26.2917 922.875 28.5833 922.875 31.125V35.4062H895.25V28.8125H912.594V28C912.615 26.875 912.417 25.9167 912 25.125C911.604 24.3333 911.021 23.7292 910.25 23.3125C909.479 22.8958 908.542 22.6875 907.438 22.6875C906.292 22.6875 905.344 22.9375 904.594 23.4375C903.865 23.9375 903.292 24.625 902.875 25.5C902.479 26.3542 902.198 27.3438 902.031 28.4688C901.865 29.5938 901.781 30.7812 901.781 32.0312V33.2188C901.781 34.4688 901.948 35.6042 902.281 36.625C902.635 37.6458 903.135 38.5208 903.781 39.25C904.448 39.9583 905.24 40.5104 906.156 40.9062C907.094 41.3021 908.156 41.5 909.344 41.5C910.781 41.5 912.198 41.2292 913.594 40.6875C914.99 40.1458 916.188 39.25 917.188 38L921.969 43.6875C921.281 44.6667 920.302 45.6146 919.031 46.5312C917.781 47.4479 916.281 48.1979 914.531 48.7812C912.781 49.3438 910.823 49.625 908.656 49.625ZM927.844 44.0625C927.844 42.5625 928.385 41.3125 929.469 40.3125C930.552 39.2917 931.948 38.7812 933.656 38.7812C935.385 38.7812 936.781 39.2917 937.844 40.3125C938.927 41.3125 939.469 42.5625 939.469 44.0625C939.469 45.5625 938.927 46.8229 937.844 47.8438C936.781 48.8438 935.385 49.3438 933.656 49.3438C931.948 49.3438 930.552 48.8438 929.469 47.8438C928.385 46.8229 927.844 45.5625 927.844 44.0625Z" fill="white"/>
</svg>
