<svg width="692" height="400" viewBox="0 0 692 400" fill="none" xmlns="http://www.w3.org/2000/svg">
<path d="M28.25 7V98H6.375V7H28.25ZM63.375 44.8125V98H42.3125V30.375H62.0625L63.375 44.8125ZM60.875 61.875L55.9375 62C55.9375 56.8333 56.5625 52.2292 57.8125 48.1875C59.0625 44.1042 60.8333 40.6458 63.125 37.8125C65.4167 34.9792 68.1458 32.8333 71.3125 31.375C74.5208 29.875 78.0833 29.125 82 29.125C85.125 29.125 87.9792 29.5833 90.5625 30.5C93.1875 31.4167 95.4375 32.8958 97.3125 34.9375C99.2292 36.9792 100.688 39.6875 101.688 43.0625C102.729 46.3958 103.25 50.5208 103.25 55.4375V98H82.0625V55.375C82.0625 52.6667 81.6875 50.6042 80.9375 49.1875C80.1875 47.7292 79.1042 46.7292 77.6875 46.1875C76.2708 45.6458 74.5417 45.375 72.5 45.375C70.3333 45.375 68.5 45.7917 67 46.625C65.5 47.4583 64.2917 48.625 63.375 50.125C62.5 51.5833 61.8542 53.3125 61.4375 55.3125C61.0625 57.3125 60.875 59.5 60.875 61.875ZM150.375 79C150.375 77.8333 149.979 76.8333 149.188 76C148.438 75.125 147.104 74.3333 145.188 73.625C143.271 72.875 140.583 72.125 137.125 71.375C133.833 70.6667 130.729 69.7292 127.812 68.5625C124.938 67.3958 122.417 65.9792 120.25 64.3125C118.083 62.6458 116.375 60.6667 115.125 58.375C113.917 56.0833 113.312 53.4583 113.312 50.5C113.312 47.625 113.917 44.9167 115.125 42.375C116.375 39.7917 118.188 37.5208 120.562 35.5625C122.979 33.5625 125.917 32 129.375 30.875C132.833 29.7083 136.771 29.125 141.188 29.125C147.271 29.125 152.521 30.0625 156.938 31.9375C161.354 33.7708 164.75 36.3542 167.125 39.6875C169.542 42.9792 170.75 46.7917 170.75 51.125H149.688C149.688 49.4167 149.396 47.9583 148.812 46.75C148.271 45.5417 147.375 44.625 146.125 44C144.875 43.3333 143.208 43 141.125 43C139.667 43 138.333 43.2708 137.125 43.8125C135.958 44.3542 135.021 45.1042 134.312 46.0625C133.604 47.0208 133.25 48.1458 133.25 49.4375C133.25 50.3542 133.458 51.1875 133.875 51.9375C134.333 52.6458 135.021 53.3125 135.938 53.9375C136.854 54.5208 138.021 55.0625 139.438 55.5625C140.854 56.0208 142.562 56.4375 144.562 56.8125C149.104 57.6458 153.354 58.8333 157.312 60.375C161.271 61.9167 164.479 64.1042 166.938 66.9375C169.438 69.7708 170.688 73.5833 170.688 78.375C170.688 81.375 170 84.1458 168.625 86.6875C167.25 89.1875 165.271 91.3958 162.688 93.3125C160.104 95.1875 157 96.6458 153.375 97.6875C149.75 98.7292 145.667 99.25 141.125 99.25C134.667 99.25 129.208 98.1042 124.75 95.8125C120.292 93.4792 116.917 90.5625 114.625 87.0625C112.375 83.5208 111.25 79.9375 111.25 76.3125H130.875C130.958 78.3958 131.458 80.1042 132.375 81.4375C133.333 82.7708 134.604 83.75 136.188 84.375C137.771 85 139.604 85.3125 141.688 85.3125C143.604 85.3125 145.188 85.0417 146.438 84.5C147.729 83.9583 148.708 83.2292 149.375 82.3125C150.042 81.3542 150.375 80.25 150.375 79ZM202.812 30.375V98H181.688V30.375H202.812ZM180.438 12.9375C180.438 9.9375 181.521 7.47917 183.688 5.5625C185.854 3.64583 188.667 2.6875 192.125 2.6875C195.583 2.6875 198.396 3.64583 200.562 5.5625C202.729 7.47917 203.812 9.9375 203.812 12.9375C203.812 15.9375 202.729 18.3958 200.562 20.3125C198.396 22.2292 195.583 23.1875 192.125 23.1875C188.667 23.1875 185.854 22.2292 183.688 20.3125C181.521 18.3958 180.438 15.9375 180.438 12.9375ZM258.312 30.375H277.438V95.375C277.438 101.625 276 106.917 273.125 111.25C270.25 115.625 266.229 118.938 261.062 121.188C255.938 123.479 249.938 124.625 243.062 124.625C240.021 124.625 236.917 124.229 233.75 123.438C230.583 122.688 227.625 121.562 224.875 120.062C222.125 118.562 219.812 116.708 217.938 114.5L226.75 102.125C228.458 104.042 230.604 105.667 233.188 107C235.771 108.375 238.812 109.062 242.312 109.062C245.354 109.062 247.896 108.521 249.938 107.438C252.021 106.354 253.604 104.771 254.688 102.688C255.771 100.646 256.312 98.1667 256.312 95.25V46.375L258.312 30.375ZM213.375 65V63.6875C213.375 58.5625 214 53.8958 215.25 49.6875C216.542 45.4375 218.375 41.7917 220.75 38.75C223.167 35.6667 226.083 33.2917 229.5 31.625C232.917 29.9583 236.771 29.125 241.062 29.125C245.688 29.125 249.479 30.0208 252.438 31.8125C255.438 33.5625 257.833 36.0208 259.625 39.1875C261.458 42.3542 262.875 46.0625 263.875 50.3125C264.917 54.5208 265.792 59.0625 266.5 63.9375V65.5C265.792 70.0833 264.812 74.4167 263.562 78.5C262.354 82.5417 260.771 86.125 258.812 89.25C256.854 92.375 254.396 94.8333 251.438 96.625C248.521 98.375 245.021 99.25 240.938 99.25C236.688 99.25 232.854 98.3958 229.438 96.6875C226.062 94.9792 223.167 92.5833 220.75 89.5C218.375 86.4167 216.542 82.7917 215.25 78.625C214 74.4583 213.375 69.9167 213.375 65ZM234.438 63.6875V65C234.438 67.5417 234.667 69.8958 235.125 72.0625C235.625 74.2292 236.375 76.1458 237.375 77.8125C238.375 79.4375 239.604 80.7083 241.062 81.625C242.562 82.5417 244.312 83 246.312 83C249.354 83 251.812 82.3542 253.688 81.0625C255.562 79.7708 256.917 77.9375 257.75 75.5625C258.583 73.1875 258.938 70.3958 258.812 67.1875V62.25C258.896 59.5 258.708 57.0833 258.25 55C257.792 52.875 257.062 51.1042 256.062 49.6875C255.104 48.2708 253.812 47.2083 252.188 46.5C250.604 45.75 248.688 45.375 246.438 45.375C244.479 45.375 242.75 45.8333 241.25 46.75C239.75 47.6667 238.5 48.9583 237.5 50.625C236.5 52.25 235.729 54.1875 235.188 56.4375C234.688 58.6458 234.438 61.0625 234.438 63.6875ZM310.188 2V98H289.125V2H310.188ZM307.688 61.875L302.75 62C302.75 57.25 303.333 52.875 304.5 48.875C305.667 44.875 307.333 41.3958 309.5 38.4375C311.667 35.4792 314.271 33.1875 317.312 31.5625C320.354 29.9375 323.729 29.125 327.438 29.125C330.771 29.125 333.812 29.6042 336.562 30.5625C339.354 31.5208 341.75 33.0625 343.75 35.1875C345.792 37.3125 347.354 40.0833 348.438 43.5C349.562 46.9167 350.125 51.0833 350.125 56V98H328.938V55.875C328.938 53.125 328.542 51 327.75 49.5C327 47.9583 325.917 46.8958 324.5 46.3125C323.083 45.6875 321.354 45.375 319.312 45.375C316.854 45.375 314.854 45.7917 313.312 46.625C311.771 47.4583 310.583 48.625 309.75 50.125C308.958 51.5833 308.417 53.3125 308.125 55.3125C307.833 57.3125 307.688 59.5 307.688 61.875ZM397.438 30.375V45H356.688V30.375H397.438ZM365.25 13.5625H386.312V75.9375C386.312 77.7292 386.521 79.125 386.938 80.125C387.354 81.0833 388.062 81.7708 389.062 82.1875C390.104 82.5625 391.479 82.75 393.188 82.75C394.396 82.75 395.396 82.7292 396.188 82.6875C396.979 82.6042 397.729 82.5 398.438 82.375V97.4375C396.646 98.0208 394.771 98.4583 392.812 98.75C390.854 99.0833 388.771 99.25 386.562 99.25C382.062 99.25 378.208 98.5417 375 97.125C371.833 95.7083 369.417 93.4792 367.75 90.4375C366.083 87.3958 365.25 83.4375 365.25 78.5625V13.5625ZM431.625 98H410.438V24.875C410.438 19.625 411.5 15.2083 413.625 11.625C415.75 8.04167 418.75 5.33333 422.625 3.5C426.5 1.625 431.083 0.6875 436.375 0.6875C438.208 0.6875 439.938 0.8125 441.562 1.0625C443.188 1.3125 444.771 1.625 446.312 2L446.375 17.5C445.625 17.2917 444.854 17.1458 444.062 17.0625C443.271 16.9792 442.292 16.9375 441.125 16.9375C439.083 16.9375 437.354 17.25 435.938 17.875C434.521 18.4583 433.438 19.3542 432.688 20.5625C431.979 21.7292 431.625 23.1667 431.625 24.875V98ZM444.75 30.375V45H400.688V30.375H444.75ZM491.812 81.5625V30.375H512.938V98H493.188L491.812 81.5625ZM493.812 67.8125L499.312 67.6875C499.312 72.2292 498.771 76.4375 497.688 80.3125C496.604 84.1458 495 87.4792 492.875 90.3125C490.792 93.1458 488.208 95.3542 485.125 96.9375C482.083 98.4792 478.562 99.25 474.562 99.25C471.229 99.25 468.167 98.7917 465.375 97.875C462.625 96.9167 460.25 95.4375 458.25 93.4375C456.25 91.3958 454.688 88.7917 453.562 85.625C452.479 82.4167 451.938 78.5833 451.938 74.125V30.375H473V74.25C473 75.75 473.188 77.0417 473.562 78.125C473.938 79.2083 474.479 80.125 475.188 80.875C475.896 81.5833 476.771 82.125 477.812 82.5C478.896 82.8333 480.125 83 481.5 83C484.667 83 487.146 82.3333 488.938 81C490.729 79.6667 491.979 77.8542 492.688 75.5625C493.438 73.2708 493.812 70.6875 493.812 67.8125ZM546.812 2V98H525.688V2H546.812ZM561.188 88.125C561.188 85.125 562.271 82.625 564.438 80.625C566.604 78.5833 569.396 77.5625 572.812 77.5625C576.271 77.5625 579.062 78.5833 581.188 80.625C583.354 82.625 584.438 85.125 584.438 88.125C584.438 91.125 583.354 93.6458 581.188 95.6875C579.062 97.6875 576.271 98.6875 572.812 98.6875C569.396 98.6875 566.604 97.6875 564.438 95.6875C562.271 93.6458 561.188 91.125 561.188 88.125ZM49 157V248H27.0625V157H49ZM76.375 157V173.938H0.3125V157H76.375ZM101.812 197.125V248H80.75V180.375H100.438L101.812 197.125ZM121.812 179.875L121.438 199.438C120.604 199.354 119.479 199.25 118.062 199.125C116.646 199 115.458 198.938 114.5 198.938C112.042 198.938 109.917 199.229 108.125 199.812C106.375 200.354 104.917 201.188 103.75 202.312C102.625 203.396 101.792 204.771 101.25 206.438C100.75 208.104 100.521 210.042 100.562 212.25L96.75 209.75C96.75 205.208 97.1875 201.083 98.0625 197.375C98.9792 193.625 100.271 190.396 101.938 187.688C103.604 184.938 105.625 182.833 108 181.375C110.375 179.875 113.042 179.125 116 179.125C117.042 179.125 118.062 179.188 119.062 179.312C120.104 179.438 121.021 179.625 121.812 179.875ZM160.562 249.25C155.062 249.25 150.146 248.396 145.812 246.688C141.479 244.938 137.812 242.542 134.812 239.5C131.854 236.458 129.583 232.958 128 229C126.458 225.042 125.688 220.854 125.688 216.438V214.062C125.688 209.104 126.375 204.521 127.75 200.312C129.125 196.062 131.167 192.354 133.875 189.188C136.583 186.021 139.979 183.562 144.062 181.812C148.146 180.021 152.896 179.125 158.312 179.125C163.104 179.125 167.396 179.896 171.188 181.438C174.979 182.979 178.188 185.188 180.812 188.062C183.479 190.938 185.5 194.417 186.875 198.5C188.292 202.583 189 207.167 189 212.25V220.812H133.75V207.625H168.438V206C168.479 203.75 168.083 201.833 167.25 200.25C166.458 198.667 165.292 197.458 163.75 196.625C162.208 195.792 160.333 195.375 158.125 195.375C155.833 195.375 153.938 195.875 152.438 196.875C150.979 197.875 149.833 199.25 149 201C148.208 202.708 147.646 204.688 147.312 206.938C146.979 209.188 146.812 211.562 146.812 214.062V216.438C146.812 218.938 147.146 221.208 147.812 223.25C148.521 225.292 149.521 227.042 150.812 228.5C152.146 229.917 153.729 231.021 155.562 231.812C157.438 232.604 159.562 233 161.938 233C164.812 233 167.646 232.458 170.438 231.375C173.229 230.292 175.625 228.5 177.625 226L187.188 237.375C185.812 239.333 183.854 241.229 181.312 243.062C178.812 244.896 175.812 246.396 172.312 247.562C168.812 248.688 164.896 249.25 160.562 249.25ZM218.25 194.812V248H197.188V180.375H216.938L218.25 194.812ZM215.75 211.875L210.812 212C210.812 206.833 211.438 202.229 212.688 198.188C213.938 194.104 215.708 190.646 218 187.812C220.292 184.979 223.021 182.833 226.188 181.375C229.396 179.875 232.958 179.125 236.875 179.125C240 179.125 242.854 179.583 245.438 180.5C248.062 181.417 250.312 182.896 252.188 184.938C254.104 186.979 255.562 189.688 256.562 193.062C257.604 196.396 258.125 200.521 258.125 205.438V248H236.938V205.375C236.938 202.667 236.562 200.604 235.812 199.188C235.062 197.729 233.979 196.729 232.562 196.188C231.146 195.646 229.417 195.375 227.375 195.375C225.208 195.375 223.375 195.792 221.875 196.625C220.375 197.458 219.167 198.625 218.25 200.125C217.375 201.583 216.729 203.312 216.312 205.312C215.938 207.312 215.75 209.5 215.75 211.875ZM308.688 232.5V152H329.875V248H310.875L308.688 232.5ZM267.188 215V213.688C267.188 208.562 267.75 203.896 268.875 199.688C270 195.438 271.667 191.792 273.875 188.75C276.083 185.667 278.833 183.292 282.125 181.625C285.417 179.958 289.208 179.125 293.5 179.125C297.333 179.125 300.688 180.021 303.562 181.812C306.438 183.562 308.896 186.021 310.938 189.188C312.979 192.354 314.646 196.062 315.938 200.312C317.229 204.521 318.208 209.062 318.875 213.938V215.5C318.208 220.083 317.229 224.417 315.938 228.5C314.646 232.542 312.979 236.125 310.938 239.25C308.896 242.375 306.417 244.833 303.5 246.625C300.625 248.375 297.25 249.25 293.375 249.25C289.083 249.25 285.292 248.396 282 246.688C278.75 244.979 276.021 242.583 273.812 239.5C271.646 236.417 270 232.792 268.875 228.625C267.75 224.458 267.188 219.917 267.188 215ZM288.25 213.688V215C288.25 217.542 288.417 219.896 288.75 222.062C289.083 224.229 289.646 226.146 290.438 227.812C291.271 229.438 292.354 230.708 293.688 231.625C295.062 232.542 296.75 233 298.75 233C301.458 233 303.688 232.354 305.438 231.062C307.229 229.771 308.542 227.938 309.375 225.562C310.25 223.188 310.625 220.396 310.5 217.188V212.25C310.583 209.5 310.396 207.083 309.938 205C309.479 202.875 308.75 201.104 307.75 199.688C306.792 198.271 305.562 197.208 304.062 196.5C302.604 195.75 300.875 195.375 298.875 195.375C296.917 195.375 295.25 195.833 293.875 196.75C292.542 197.667 291.458 198.958 290.625 200.625C289.792 202.25 289.188 204.188 288.812 206.438C288.438 208.646 288.25 211.062 288.25 213.688ZM362.562 240.062L380.062 180.375H402.688L375.5 258.062C374.917 259.771 374.146 261.604 373.188 263.562C372.229 265.562 370.917 267.458 369.25 269.25C367.583 271.042 365.438 272.5 362.812 273.625C360.229 274.75 357.021 275.312 353.188 275.312C351.146 275.312 349.646 275.208 348.688 275C347.771 274.833 346.354 274.521 344.438 274.062V259C344.979 259 345.438 259 345.812 259C346.229 259 346.688 259 347.188 259C349.438 259 351.229 258.771 352.562 258.312C353.938 257.854 354.979 257.188 355.688 256.312C356.438 255.438 357.021 254.375 357.438 253.125L362.562 240.062ZM358.125 180.375L371.438 227.688L373.75 250H359.625L335.562 180.375H358.125ZM399.062 238.125C399.062 235.125 400.146 232.625 402.312 230.625C404.479 228.583 407.271 227.562 410.688 227.562C414.146 227.562 416.938 228.583 419.062 230.625C421.229 232.625 422.312 235.125 422.312 238.125C422.312 241.125 421.229 243.646 419.062 245.688C416.938 247.688 414.146 248.688 410.688 248.688C407.271 248.688 404.479 247.688 402.312 245.688C400.146 243.646 399.062 241.125 399.062 238.125ZM41.25 367.125H18.625V350.188H41.25C44.3333 350.188 46.8333 349.667 48.75 348.625C50.6667 347.583 52.0625 346.146 52.9375 344.312C53.8542 342.438 54.3125 340.333 54.3125 338C54.3125 335.5 53.8542 333.188 52.9375 331.062C52.0625 328.938 50.6667 327.229 48.75 325.938C46.8333 324.604 44.3333 323.938 41.25 323.938H26.875V398H4.9375V307H41.25C48.5417 307 54.8125 308.333 60.0625 311C65.3542 313.667 69.4167 317.333 72.25 322C75.0833 326.625 76.5 331.917 76.5 337.875C76.5 343.75 75.0833 348.875 72.25 353.25C69.4167 357.625 65.3542 361.042 60.0625 363.5C54.8125 365.917 48.5417 367.125 41.25 367.125ZM108.562 347.125V398H87.5V330.375H107.188L108.562 347.125ZM128.562 329.875L128.188 349.438C127.354 349.354 126.229 349.25 124.812 349.125C123.396 349 122.208 348.938 121.25 348.938C118.792 348.938 116.667 349.229 114.875 349.812C113.125 350.354 111.667 351.188 110.5 352.312C109.375 353.396 108.542 354.771 108 356.438C107.5 358.104 107.271 360.042 107.312 362.25L103.5 359.75C103.5 355.208 103.938 351.083 104.812 347.375C105.729 343.625 107.021 340.396 108.688 337.688C110.354 334.938 112.375 332.833 114.75 331.375C117.125 329.875 119.792 329.125 122.75 329.125C123.792 329.125 124.812 329.188 125.812 329.312C126.854 329.438 127.771 329.625 128.562 329.875ZM167.312 399.25C161.812 399.25 156.896 398.396 152.562 396.688C148.229 394.938 144.562 392.542 141.562 389.5C138.604 386.458 136.333 382.958 134.75 379C133.208 375.042 132.438 370.854 132.438 366.438V364.062C132.438 359.104 133.125 354.521 134.5 350.312C135.875 346.062 137.917 342.354 140.625 339.188C143.333 336.021 146.729 333.562 150.812 331.812C154.896 330.021 159.646 329.125 165.062 329.125C169.854 329.125 174.146 329.896 177.938 331.438C181.729 332.979 184.938 335.188 187.562 338.062C190.229 340.938 192.25 344.417 193.625 348.5C195.042 352.583 195.75 357.167 195.75 362.25V370.812H140.5V357.625H175.188V356C175.229 353.75 174.833 351.833 174 350.25C173.208 348.667 172.042 347.458 170.5 346.625C168.958 345.792 167.083 345.375 164.875 345.375C162.583 345.375 160.688 345.875 159.188 346.875C157.729 347.875 156.583 349.25 155.75 351C154.958 352.708 154.396 354.688 154.062 356.938C153.729 359.188 153.562 361.562 153.562 364.062V366.438C153.562 368.938 153.896 371.208 154.562 373.25C155.271 375.292 156.271 377.042 157.562 378.5C158.896 379.917 160.479 381.021 162.312 381.812C164.188 382.604 166.312 383 168.688 383C171.562 383 174.396 382.458 177.188 381.375C179.979 380.292 182.375 378.5 184.375 376L193.938 387.375C192.562 389.333 190.604 391.229 188.062 393.062C185.562 394.896 182.562 396.396 179.062 397.562C175.562 398.688 171.646 399.25 167.312 399.25ZM243.188 382.5V302H264.375V398H245.375L243.188 382.5ZM201.688 365V363.688C201.688 358.562 202.25 353.896 203.375 349.688C204.5 345.438 206.167 341.792 208.375 338.75C210.583 335.667 213.333 333.292 216.625 331.625C219.917 329.958 223.708 329.125 228 329.125C231.833 329.125 235.188 330.021 238.062 331.812C240.938 333.562 243.396 336.021 245.438 339.188C247.479 342.354 249.146 346.062 250.438 350.312C251.729 354.521 252.708 359.062 253.375 363.938V365.5C252.708 370.083 251.729 374.417 250.438 378.5C249.146 382.542 247.479 386.125 245.438 389.25C243.396 392.375 240.917 394.833 238 396.625C235.125 398.375 231.75 399.25 227.875 399.25C223.583 399.25 219.792 398.396 216.5 396.688C213.25 394.979 210.521 392.583 208.312 389.5C206.146 386.417 204.5 382.792 203.375 378.625C202.25 374.458 201.688 369.917 201.688 365ZM222.75 363.688V365C222.75 367.542 222.917 369.896 223.25 372.062C223.583 374.229 224.146 376.146 224.938 377.812C225.771 379.438 226.854 380.708 228.188 381.625C229.562 382.542 231.25 383 233.25 383C235.958 383 238.188 382.354 239.938 381.062C241.729 379.771 243.042 377.938 243.875 375.562C244.75 373.188 245.125 370.396 245 367.188V362.25C245.083 359.5 244.896 357.083 244.438 355C243.979 352.875 243.25 351.104 242.25 349.688C241.292 348.271 240.062 347.208 238.562 346.5C237.104 345.75 235.375 345.375 233.375 345.375C231.417 345.375 229.75 345.833 228.375 346.75C227.042 347.667 225.958 348.958 225.125 350.625C224.292 352.25 223.688 354.188 223.312 356.438C222.938 358.646 222.75 361.062 222.75 363.688ZM298.562 330.375V398H277.438V330.375H298.562ZM276.188 312.938C276.188 309.938 277.271 307.479 279.438 305.562C281.604 303.646 284.417 302.688 287.875 302.688C291.333 302.688 294.146 303.646 296.312 305.562C298.479 307.479 299.562 309.938 299.562 312.938C299.562 315.938 298.479 318.396 296.312 320.312C294.146 322.229 291.333 323.188 287.875 323.188C284.417 323.188 281.604 322.229 279.438 320.312C277.271 318.396 276.188 315.938 276.188 312.938ZM340.125 383C342.083 383 343.75 382.646 345.125 381.938C346.542 381.188 347.604 380.146 348.312 378.812C349.062 377.438 349.417 375.792 349.375 373.875H369.188C369.229 378.958 367.979 383.417 365.438 387.25C362.938 391.042 359.521 394 355.188 396.125C350.896 398.208 346.042 399.25 340.625 399.25C335.333 399.25 330.708 398.396 326.75 396.688C322.792 394.938 319.479 392.521 316.812 389.438C314.188 386.312 312.208 382.667 310.875 378.5C309.583 374.333 308.938 369.812 308.938 364.938V363.5C308.938 358.625 309.583 354.104 310.875 349.938C312.208 345.729 314.188 342.083 316.812 339C319.479 335.875 322.771 333.458 326.688 331.75C330.646 330 335.25 329.125 340.5 329.125C346.125 329.125 351.083 330.188 355.375 332.312C359.708 334.438 363.104 337.521 365.562 341.562C368.021 345.604 369.229 350.5 369.188 356.25H349.375C349.417 354.208 349.104 352.375 348.438 350.75C347.771 349.125 346.729 347.833 345.312 346.875C343.938 345.875 342.167 345.375 340 345.375C337.833 345.375 336.083 345.854 334.75 346.812C333.417 347.771 332.396 349.104 331.688 350.812C331.021 352.479 330.562 354.396 330.312 356.562C330.104 358.729 330 361.042 330 363.5V364.938C330 367.438 330.104 369.792 330.312 372C330.562 374.167 331.042 376.083 331.75 377.75C332.458 379.375 333.479 380.667 334.812 381.625C336.146 382.542 337.917 383 340.125 383ZM413.812 330.375V345H373.062V330.375H413.812ZM381.625 313.562H402.688V375.938C402.688 377.729 402.896 379.125 403.312 380.125C403.729 381.083 404.438 381.771 405.438 382.188C406.479 382.562 407.854 382.75 409.562 382.75C410.771 382.75 411.771 382.729 412.562 382.688C413.354 382.604 414.104 382.5 414.812 382.375V397.438C413.021 398.021 411.146 398.458 409.188 398.75C407.229 399.083 405.146 399.25 402.938 399.25C398.438 399.25 394.583 398.542 391.375 397.125C388.208 395.708 385.792 393.479 384.125 390.438C382.458 387.396 381.625 383.438 381.625 378.562V313.562ZM444.438 330.375V398H423.312V330.375H444.438ZM422.062 312.938C422.062 309.938 423.146 307.479 425.312 305.562C427.479 303.646 430.292 302.688 433.75 302.688C437.208 302.688 440.021 303.646 442.188 305.562C444.354 307.479 445.438 309.938 445.438 312.938C445.438 315.938 444.354 318.396 442.188 320.312C440.021 322.229 437.208 323.188 433.75 323.188C430.292 323.188 427.479 322.229 425.312 320.312C423.146 318.396 422.062 315.938 422.062 312.938ZM454.812 364.875V363.562C454.812 358.604 455.521 354.042 456.938 349.875C458.354 345.667 460.438 342.021 463.188 338.938C465.938 335.854 469.333 333.458 473.375 331.75C477.417 330 482.083 329.125 487.375 329.125C492.708 329.125 497.396 330 501.438 331.75C505.521 333.458 508.938 335.854 511.688 338.938C514.438 342.021 516.521 345.667 517.938 349.875C519.354 354.042 520.062 358.604 520.062 363.562V364.875C520.062 369.792 519.354 374.354 517.938 378.562C516.521 382.729 514.438 386.375 511.688 389.5C508.938 392.583 505.542 394.979 501.5 396.688C497.458 398.396 492.792 399.25 487.5 399.25C482.208 399.25 477.521 398.396 473.438 396.688C469.354 394.979 465.938 392.583 463.188 389.5C460.438 386.375 458.354 382.729 456.938 378.562C455.521 374.354 454.812 369.792 454.812 364.875ZM475.875 363.562V364.875C475.875 367.417 476.062 369.792 476.438 372C476.812 374.208 477.438 376.146 478.312 377.812C479.188 379.438 480.375 380.708 481.875 381.625C483.375 382.542 485.25 383 487.5 383C489.708 383 491.542 382.542 493 381.625C494.5 380.708 495.688 379.438 496.562 377.812C497.438 376.146 498.062 374.208 498.438 372C498.812 369.792 499 367.417 499 364.875V363.562C499 361.104 498.812 358.792 498.438 356.625C498.062 354.417 497.438 352.479 496.562 350.812C495.688 349.104 494.5 347.771 493 346.812C491.5 345.854 489.625 345.375 487.375 345.375C485.167 345.375 483.312 345.854 481.812 346.812C480.354 347.771 479.188 349.104 478.312 350.812C477.438 352.479 476.812 354.417 476.438 356.625C476.062 358.792 475.875 361.104 475.875 363.562ZM550.125 344.812V398H529.062V330.375H548.812L550.125 344.812ZM547.625 361.875L542.688 362C542.688 356.833 543.312 352.229 544.562 348.188C545.812 344.104 547.583 340.646 549.875 337.812C552.167 334.979 554.896 332.833 558.062 331.375C561.271 329.875 564.833 329.125 568.75 329.125C571.875 329.125 574.729 329.583 577.312 330.5C579.938 331.417 582.188 332.896 584.062 334.938C585.979 336.979 587.438 339.688 588.438 343.062C589.479 346.396 590 350.521 590 355.438V398H568.812V355.375C568.812 352.667 568.438 350.604 567.688 349.188C566.938 347.729 565.854 346.729 564.438 346.188C563.021 345.646 561.292 345.375 559.25 345.375C557.083 345.375 555.25 345.792 553.75 346.625C552.25 347.458 551.042 348.625 550.125 350.125C549.25 351.583 548.604 353.312 548.188 355.312C547.812 357.312 547.625 359.5 547.625 361.875ZM637.125 379C637.125 377.833 636.729 376.833 635.938 376C635.188 375.125 633.854 374.333 631.938 373.625C630.021 372.875 627.333 372.125 623.875 371.375C620.583 370.667 617.479 369.729 614.562 368.562C611.688 367.396 609.167 365.979 607 364.312C604.833 362.646 603.125 360.667 601.875 358.375C600.667 356.083 600.062 353.458 600.062 350.5C600.062 347.625 600.667 344.917 601.875 342.375C603.125 339.792 604.938 337.521 607.312 335.562C609.729 333.562 612.667 332 616.125 330.875C619.583 329.708 623.521 329.125 627.938 329.125C634.021 329.125 639.271 330.062 643.688 331.938C648.104 333.771 651.5 336.354 653.875 339.688C656.292 342.979 657.5 346.792 657.5 351.125H636.438C636.438 349.417 636.146 347.958 635.562 346.75C635.021 345.542 634.125 344.625 632.875 344C631.625 343.333 629.958 343 627.875 343C626.417 343 625.083 343.271 623.875 343.812C622.708 344.354 621.771 345.104 621.062 346.062C620.354 347.021 620 348.146 620 349.438C620 350.354 620.208 351.188 620.625 351.938C621.083 352.646 621.771 353.312 622.688 353.938C623.604 354.521 624.771 355.062 626.188 355.562C627.604 356.021 629.312 356.438 631.312 356.812C635.854 357.646 640.104 358.833 644.062 360.375C648.021 361.917 651.229 364.104 653.688 366.938C656.188 369.771 657.438 373.583 657.438 378.375C657.438 381.375 656.75 384.146 655.375 386.688C654 389.188 652.021 391.396 649.438 393.312C646.854 395.188 643.75 396.646 640.125 397.688C636.5 398.729 632.417 399.25 627.875 399.25C621.417 399.25 615.958 398.104 611.5 395.812C607.042 393.479 603.667 390.562 601.375 387.062C599.125 383.521 598 379.938 598 376.312H617.625C617.708 378.396 618.208 380.104 619.125 381.438C620.083 382.771 621.354 383.75 622.938 384.375C624.521 385 626.354 385.312 628.438 385.312C630.354 385.312 631.938 385.042 633.188 384.5C634.479 383.958 635.458 383.229 636.125 382.312C636.792 381.354 637.125 380.25 637.125 379ZM668.688 388.125C668.688 385.125 669.771 382.625 671.938 380.625C674.104 378.583 676.896 377.562 680.312 377.562C683.771 377.562 686.562 378.583 688.688 380.625C690.854 382.625 691.938 385.125 691.938 388.125C691.938 391.125 690.854 393.646 688.688 395.688C686.562 397.688 683.771 398.688 680.312 398.688C676.896 398.688 674.104 397.688 671.938 395.688C669.771 393.646 668.688 391.125 668.688 388.125Z" fill="white"/>
</svg>
